<?xml version="1.0" encoding="UTF-8" standalone="no"?>
<!-- Generator: Adobe Illustrator 18.0.0, SVG Export Plug-In . SVG Version: 6.00 Build 0)  -->

<svg
   xmlns:dc="http://purl.org/dc/elements/1.1/"
   xmlns:cc="http://creativecommons.org/ns#"
   xmlns:rdf="http://www.w3.org/1999/02/22-rdf-syntax-ns#"
   xmlns:svg="http://www.w3.org/2000/svg"
   xmlns="http://www.w3.org/2000/svg"
   xmlns:sodipodi="http://sodipodi.sourceforge.net/DTD/sodipodi-0.dtd"
   xmlns:inkscape="http://www.inkscape.org/namespaces/inkscape"
   version="1.1"
   id="Capa_1"
   x="0px"
   y="0px"
   viewBox="0 0 54 54"
   style="enable-background:new 0 0 54 54;"
   xml:space="preserve"
   inkscape:version="0.91 r13725"
   sodipodi:docname="down.svg"><metadata
     id="metadata19"><rdf:RDF><cc:Work
         rdf:about=""><dc:format>image/svg+xml</dc:format><dc:type
           rdf:resource="http://purl.org/dc/dcmitype/StillImage" /><dc:title></dc:title></cc:Work></rdf:RDF></metadata><defs
     id="defs17" /><sodipodi:namedview
     pagecolor="#ffffff"
     bordercolor="#666666"
     borderopacity="1"
     objecttolerance="10"
     gridtolerance="10"
     guidetolerance="10"
     inkscape:pageopacity="0"
     inkscape:pageshadow="2"
     inkscape:window-width="2560"
     inkscape:window-height="1056"
     id="namedview15"
     showgrid="false"
     inkscape:zoom="4.3703704"
     inkscape:cx="27"
     inkscape:cy="27"
     inkscape:window-x="0"
     inkscape:window-y="24"
     inkscape:window-maximized="1"
     inkscape:current-layer="Capa_1" /><g
     id="g3"
     transform="matrix(1,0,0,-1,0,54)"><g
       id="g5"><rect
         x="1"
         y="1"
         style="fill:#007fff"
         width="52"
         height="52"
         id="rect7" /><path
         style="fill:#007fff"
         d="M 54,54 0,54 0,0 54,0 54,54 Z M 2,52 52,52 52,2 2,2 2,52 Z"
         id="path9"
         inkscape:connector-curvature="0" /></g><path
       style="fill:#ffffff"
       d="m 27,41.5 c -0.552,0 -1,-0.447 -1,-1 l 0,-26 c 0,-0.553 0.448,-1 1,-1 0.552,0 1,0.447 1,1 l 0,26 c 0,0.553 -0.448,1 -1,1 z"
       id="path11"
       inkscape:connector-curvature="0" /><polygon
       style="fill:#ffffff"
       points="27,14.914 17.707,24.207 16.293,22.793 27,12.086 37.707,22.793 36.293,24.207 "
       id="polygon13" /></g></svg>