<?xml version="1.0" encoding="UTF-8" standalone="no"?>
<svg
   xmlns:dc="http://purl.org/dc/elements/1.1/"
   xmlns:cc="http://creativecommons.org/ns#"
   xmlns:rdf="http://www.w3.org/1999/02/22-rdf-syntax-ns#"
   xmlns:svg="http://www.w3.org/2000/svg"
   xmlns="http://www.w3.org/2000/svg"
   xml:space="preserve"
   style="enable-background:new 0 0 548.266 548.266;"
   viewBox="0 0 548.266 548.266"
   y="0px"
   x="0px"
   id="Capa_1"
   version="1.1"><metadata
     id="metadata45"><rdf:RDF><cc:Work
         rdf:about=""><dc:format>image/svg+xml</dc:format><dc:type
           rdf:resource="http://purl.org/dc/dcmitype/StillImage" /><dc:title></dc:title></cc:Work></rdf:RDF></metadata><defs
     id="defs43" /><path style="fill: #007fff"
     id="path7"
     d="m 487.906,279.163 15.09,-108.144 c 0,-2.515 0,-7.545 -2.515,-10.06 -2.515,-2.515 -7.545,-5.03 -10.06,-5.03 l -37.725,0 0,-62.875 c 0,-7.545 -5.03,-12.575 -12.575,-12.575 l -178.563,0 -55.33,-47.785 c 0,-2.515 -5.03,-2.515 -7.545,-2.515 l -135.809,0 c -7.545,0 -12.575,5.03 -12.575,12.575 l 0,113.174 -37.724,0 c -2.515,0 -7.545,2.515 -10.06,5.03 C 0,163.474 0,165.989 0,171.019 l 50.3,276.648 c 0,5.03 5.03,10.06 12.575,10.06 l 238.923,0 c 2.515,0 2.515,0 5.03,0 22.635,37.725 62.874,60.359 110.659,60.359 72.934,0 130.779,-57.845 130.779,-130.779 -2.515,-45.27 -25.15,-82.994 -60.36,-108.144 z M 75.449,155.929 l 0,-100.599 118.204,0 55.33,47.785 c 2.515,2.515 5.03,2.515 7.545,2.515 l 171.019,0 0,50.3 -352.098,0 z m 339.523,337.007 c -57.845,0 -105.629,-47.785 -105.629,-105.629 0,-57.844 47.785,-105.629 105.629,-105.629 57.844,0 105.629,47.785 105.629,105.629 0,57.844 -47.785,105.629 -105.629,105.629 z" /><path
     id="path9"
     d="m 477.846,382.277 c -41.9201,0 -85.79902,0 -125.75,0 -7.545,0 -12.575,5.03 -12.575,12.575 0,7.545 5.03,12.575 12.575,12.575 l 50.3,0 c 3.25464,0 6.27432,0 25.15,0 l 50.3,0 c 7.545,0 12.575,-5.03 12.575,-12.575 0,-7.545 -5.03,-12.575 -12.575,-12.575 z" /><g
     id="g11" style="fill: #007fff"/></svg>