<?xml version="1.0" encoding="iso-8859-1"?>
<!-- Generator: Adobe Illustrator 16.0.0, SVG Export Plug-In . SVG Version: 6.00 Build 0)  -->
<!DOCTYPE svg PUBLIC "-//W3C//DTD SVG 1.1//EN" "http://www.w3.org/Graphics/SVG/1.1/DTD/svg11.dtd">
<svg version="1.1" id="Capa_1" xmlns="http://www.w3.org/2000/svg" xmlns:xlink="http://www.w3.org/1999/xlink" x="0px" y="0px"
	 width="352.219px" height="352.219px" viewBox="0 0 352.219 352.219" style="enable-background:new 0 0 352.219 352.219;"
	 xml:space="preserve">
<g>
	<path style="fill: #063D85" d="M341.427,198.85L192.01,133.725c-8.626-3.762-22.757-3.767-31.389-0.015L10.795,198.86
		c-8.634,3.757-12.995,14.308-9.689,23.45l39.91,110.471c3.306,9.145,13.656,16.623,23.011,16.623h224.167
		c9.354,0,19.703-7.479,23.007-16.623l39.914-110.471C354.416,213.168,350.059,202.608,341.427,198.85z"/>
	<path style="fill: #063D85" d="M69.558,161.759c18.932-6.44,88.602-38.701,88.602-38.701c4.933-2.146,11.372-3.329,18.135-3.329
		c6.782,0,13.242,1.189,18.184,3.345c0,0,68.33,29.614,86.295,37.602c11.684,5.194,11.684-4.974,11.684-4.974V94.653
		c0-8.281-6.482-15.057-14.407-15.057H74.165c-7.922,0-14.408,6.775-14.408,15.057v62.044
		C59.757,156.697,59.659,165.126,69.558,161.759z M106.672,95.665c0-2.456,1.922-4.466,4.272-4.466H241.27
		c2.351,0,4.271,2.01,4.271,4.466v1.938c0,2.456-1.922,4.466-4.271,4.466H110.944c-2.35,0-4.272-2.01-4.272-4.466V95.665z"/>
	<path style="fill: #063D85" d="M115.335,68.191h121.54c7.8,0,14.193-6.568,14.394-14.669l0.02-35.65c0-8.28-6.484-15.058-14.407-15.058H115.339
		c-7.925,0-14.412,6.778-14.412,15.058l0.02,35.65C101.146,61.623,107.538,68.191,115.335,68.191z M220.537,22.339
		c7.907,0,14.313,6.697,14.313,14.958s-6.406,14.958-14.313,14.958c-7.905,0-14.315-6.697-14.315-14.958
		S212.632,22.339,220.537,22.339z M175.772,22.339c7.905,0,14.313,6.697,14.313,14.958s-6.408,14.958-14.313,14.958
		c-7.907,0-14.311-6.697-14.311-14.958S167.864,22.339,175.772,22.339z M131.008,22.339c7.907,0,14.313,6.697,14.313,14.958
		s-6.406,14.958-14.313,14.958c-7.905,0-14.313-6.697-14.313-14.958S123.103,22.339,131.008,22.339z"/>
</g>
</svg>
