<?xml version="1.0" encoding="UTF-8" standalone="no"?>
<svg
        xmlns:dc="http://purl.org/dc/elements/1.1/"
        xmlns:cc="http://creativecommons.org/ns#"
        xmlns:rdf="http://www.w3.org/1999/02/22-rdf-syntax-ns#"
        xmlns:svg="http://www.w3.org/2000/svg"
        xmlns="http://www.w3.org/2000/svg"
        xmlns:sodipodi="http://sodipodi.sourceforge.net/DTD/sodipodi-0.dtd"
        xmlns:inkscape="http://www.inkscape.org/namespaces/inkscape"
        width="442.44611"
        height="47.276581"
        id="svg2"
        version="1.1"
        inkscape:version="0.91 r13725"
        sodipodi:docname="wave.svg">
  <metadata
          id="metadata13">
    <rdf:RDF>
      <cc:Work
              rdf:about="">
        <dc:format>image/svg+xml</dc:format>
        <dc:type
                rdf:resource="http://purl.org/dc/dcmitype/StillImage" />
        <dc:title></dc:title>
      </cc:Work>
    </rdf:RDF>
  </metadata>
  <defs
          id="defs11" />
  <sodipodi:namedview
          pagecolor="#ffffff"
          bordercolor="#666666"
          borderopacity="1"
          objecttolerance="10"
          gridtolerance="10"
          guidetolerance="10"
          inkscape:pageopacity="0"
          inkscape:pageshadow="2"
          inkscape:window-width="1454"
          inkscape:window-height="911"
          id="namedview9"
          showgrid="false"
          fit-margin-top="0"
          fit-margin-left="0"
          fit-margin-right="0"
          fit-margin-bottom="0"
          inkscape:zoom="0.98333333"
          inkscape:cx="141.34337"
          inkscape:cy="-68.530221"
          inkscape:window-x="10"
          inkscape:window-y="34"
          inkscape:window-maximized="0"
          inkscape:current-layer="svg2" />
  <g
          id="g4"
          transform="translate(-72.548142,-293.54709)">
    <path
            d="m 255.64044,330.60016 c -6.83786,6.62585 -16.06195,9.22351 -26.29251,9.22351 -12.98724,0 -24.80786,-5.30078 -31.59329,-15.31989 -6.73184,10.23114 -18.60602,15.31989 -31.75229,15.31989 -12.98666,0 -24.70184,-5.4068 -31.48669,-15.4259 -6.73243,10.33715 -18.60605,15.4259 -31.91129,15.4259 -9.594542,0 -18.394042,-2.17365 -25.020446,-8.05746 l -5.035782,-36.04603 c 6.891441,9.1175 17.811012,15.00132 30.056228,15.00132 13.30524,0 25.17887,-6.51984 31.91129,-16.85639 6.78485,10.01853 18.50003,16.85639 31.48669,16.85639 13.14627,0 25.02045,-6.51984 31.75229,-16.7504 6.78543,10.01855 18.60605,16.7504 31.59329,16.7504 13.25226,0 24.96744,-6.83786 31.6463,-17.17441 l -5.35379,37.05307 z"
            id="svg_6"
            inkscape:connector-curvature="0"
            style="fill:#007fff;fill-rule:nonzero" />
    <path
            d="m 382.64044,331.60016 c -6.83786,6.62585 -16.06195,9.22351 -26.29251,9.22351 -12.98724,0 -24.80786,-5.30078 -31.59329,-15.31989 -6.73184,10.23114 -18.60602,15.31989 -31.75229,15.31989 -12.98666,0 -24.70184,-5.4068 -31.48669,-15.4259 -6.73243,10.33715 -18.60605,15.4259 -31.91129,15.4259 -9.59454,0 -18.39404,-2.17365 -25.02045,-8.05746 l -5.03578,-36.04603 c 6.89144,9.1175 17.81099,15.00132 30.05623,15.00132 13.30524,0 25.17886,-6.51984 31.91129,-16.85639 6.78485,10.01853 18.50003,16.85639 31.48669,16.85639 13.14627,0 25.02045,-6.51984 31.75229,-16.7504 6.78543,10.01855 18.60605,16.7504 31.59329,16.7504 13.25226,0 24.96744,-6.83786 31.6463,-17.17441 l -5.35379,37.05307 z"
            id="svg_7"
            inkscape:connector-curvature="0"
            style="fill:#007fff;fill-rule:nonzero" />
  </g>
</svg>
