<?xml version="1.0" encoding="UTF-8" standalone="no"?>
<svg
   xmlns:dc="http://purl.org/dc/elements/1.1/"
   xmlns:cc="http://creativecommons.org/ns#"
   xmlns:rdf="http://www.w3.org/1999/02/22-rdf-syntax-ns#"
   xmlns:svg="http://www.w3.org/2000/svg"
   xmlns="http://www.w3.org/2000/svg"
   version="1.1"
   id="svg2"
   height="8.5482197"
   width="80">
  <metadata
     id="metadata13">
    <rdf:RDF>
      <cc:Work
         rdf:about="">
        <dc:format>image/svg+xml</dc:format>
        <dc:type
           rdf:resource="http://purl.org/dc/dcmitype/StillImage" />
        <dc:title></dc:title>
      </cc:Work>
    </rdf:RDF>
  </metadata>
  <defs
     id="defs11" />
  <g
     transform="matrix(0.18081298,0,0,0.18081298,-13.117646,-53.077124)"
     id="g4">
    <path
       style="fill:#007fff;fill-rule:nonzero"
       id="svg_6"
       d="m 255.64044,330.60016 c -6.83786,6.62585 -16.06195,9.22351 -26.29251,9.22351 -12.98724,0 -24.80786,-5.30078 -31.59329,-15.31989 -6.73184,10.23114 -18.60602,15.31989 -31.75229,15.31989 -12.98666,0 -24.70184,-5.4068 -31.48669,-15.4259 -6.73243,10.33715 -18.60605,15.4259 -31.91129,15.4259 -9.594542,0 -18.394042,-2.17365 -25.020446,-8.05746 l -5.035782,-36.04603 c 6.891441,9.1175 17.811012,15.00132 30.056228,15.00132 13.30524,0 25.17887,-6.51984 31.91129,-16.85639 6.78485,10.01853 18.50003,16.85639 31.48669,16.85639 13.14627,0 25.02045,-6.51984 31.75229,-16.7504 6.78543,10.01855 18.60605,16.7504 31.59329,16.7504 13.25226,0 24.96744,-6.83786 31.6463,-17.17441 l -5.35379,37.05307 z" />
    <path
       style="fill:#007fff;fill-rule:nonzero"
       id="svg_7"
       d="m 382.64044,331.60016 c -6.83786,6.62585 -16.06195,9.22351 -26.29251,9.22351 -12.98724,0 -24.80786,-5.30078 -31.59329,-15.31989 -6.73184,10.23114 -18.60602,15.31989 -31.75229,15.31989 -12.98666,0 -24.70184,-5.4068 -31.48669,-15.4259 -6.73243,10.33715 -18.60605,15.4259 -31.91129,15.4259 -9.59454,0 -18.39404,-2.17365 -25.02045,-8.05746 l -5.03578,-36.04603 c 6.89144,9.1175 17.81099,15.00132 30.05623,15.00132 13.30524,0 25.17886,-6.51984 31.91129,-16.85639 6.78485,10.01853 18.50003,16.85639 31.48669,16.85639 13.14627,0 25.02045,-6.51984 31.75229,-16.7504 6.78543,10.01855 18.60605,16.7504 31.59329,16.7504 13.25226,0 24.96744,-6.83786 31.6463,-17.17441 l -5.35379,37.05307 z" />
    <path
       style="fill:#007fff;fill-rule:nonzero"
       id="svg_8"
       d="m 509.64044,330.60016 c -6.83783,6.62585 -16.06195,9.22351 -26.29251,9.22351 -12.98724,0 -24.80786,-5.30078 -31.59329,-15.31989 -6.73184,10.23114 -18.60602,15.31989 -31.75229,15.31989 -12.98666,0 -24.70184,-5.4068 -31.48669,-15.4259 -6.73243,10.33715 -18.60605,15.4259 -31.91129,15.4259 -9.59454,0 -18.39404,-2.17365 -25.02045,-8.05746 l -5.03576,-36.04603 c 6.89141,9.1175 17.81097,15.00132 30.05621,15.00132 13.30524,0 25.17886,-6.51984 31.91128,-16.85639 6.78486,10.01853 18.50004,16.85639 31.4867,16.85639 13.14627,0 25.02045,-6.51984 31.75229,-16.7504 6.78543,10.01855 18.60605,16.7504 31.59329,16.7504 13.25229,0 24.96744,-6.83786 31.64633,-17.17441 l -5.35382,37.05307 z" />
  </g>
</svg>
