<?xml version="1.0" encoding="UTF-8" standalone="no"?>
<svg
   xmlns:dc="http://purl.org/dc/elements/1.1/"
   xmlns:cc="http://creativecommons.org/ns#"
   xmlns:rdf="http://www.w3.org/1999/02/22-rdf-syntax-ns#"
   xmlns:svg="http://www.w3.org/2000/svg"
   xmlns="http://www.w3.org/2000/svg"
   width="45.724743"
   height="8.5482197"
   id="svg2"
   version="1.1">
  <metadata
     id="metadata13">
    <rdf:RDF>
      <cc:Work
         rdf:about="">
        <dc:format>image/svg+xml</dc:format>
        <dc:type
           rdf:resource="http://purl.org/dc/dcmitype/StillImage" />
        <dc:title></dc:title>
      </cc:Work>
    </rdf:RDF>
  </metadata>
  <defs
     id="defs11" />
  <path
     style="fill:#d6dce8;fill-opacity:1;fill-rule:nonzero"
     id="svg_6"
     d="m 33.105464,6.699676 c -1.236374,1.1980397 -2.904209,1.6677303 -4.754027,1.6677303 -2.348262,0 -4.485583,-0.9584498 -5.712477,-2.7700349 -1.217204,1.8499229 -3.36421,2.7700349 -5.741226,2.7700349 -2.348157,0 -4.466414,-0.9776196 -5.693203,-2.7892029 -1.2173101,1.8690909 -3.3642147,2.7892029 -5.7699748,2.7892029 -1.7348177,0 -3.3258815,-0.3930241 -4.52402145,-1.4568933 L 0,0.39292288 C 1.246062,2.0414852 3.2204622,3.1053563 5.4345562,3.1053563 c 2.4057601,0 4.5526665,-1.1788717 5.7699748,-3.04785415 1.226789,1.81148025 3.345046,3.04785415 5.693203,3.04785415 2.377016,0 4.524022,-1.1788717 5.741226,-3.02868979 1.226894,1.81148389 3.364215,3.02868979 5.712477,3.02868979 2.39618,0 4.514437,-1.2363739 5.722061,-3.1053563 l -0.968034,6.699676 z" />
  <path
     style="fill:#d6dce8;fill-opacity:1;fill-rule:nonzero"
     id="svg_7"
     d="m 44.756708,6.880489 c -1.236374,1.1980397 -2.904209,1.6677303 -4.754027,1.6677303 -2.348261,0 -4.485583,-0.9584498 -5.712477,-2.7700349 -1.217204,1.8499229 -3.36421,2.7700349 -5.741226,2.7700349 -2.348157,0 -4.466413,-0.9776196 -5.693202,-2.7892029 -1.217311,1.8690909 -3.364216,2.7892029 -5.769976,2.7892029 -1.734817,0 -3.325881,-0.3930241 -4.524022,-1.4568933 L 11.651244,0.5737359 c 1.246062,1.6485623 3.220458,2.7124333 5.434556,2.7124333 2.40576,0 4.552665,-1.1788717 5.769976,-3.0478541 1.226789,1.8114803 3.345045,3.0478541 5.693202,3.0478541 2.377016,0 4.524022,-1.1788717 5.741226,-3.0286897 1.226894,1.8114839 3.364216,3.0286897 5.712477,3.0286897 2.396181,0 4.514437,-1.2363738 5.722062,-3.1053562 l -0.968035,6.699676 z" />
</svg>
