<?xml version="1.0" encoding="utf-8"?>
<!-- Generator: Adobe Illustrator 16.0.0, SVG Export Plug-In . SVG Version: 6.00 Build 0)  -->
<!DOCTYPE svg PUBLIC "-//W3C//DTD SVG 1.1//EN" "http://www.w3.org/Graphics/SVG/1.1/DTD/svg11.dtd">
<svg version="1.1" id="Warstwa_1" xmlns="http://www.w3.org/2000/svg" xmlns:xlink="http://www.w3.org/1999/xlink" x="0px" y="0px"
	 width="315.218px" height="226.087px" viewBox="0 0 315.218 226.087" enable-background="new 0 0 315.218 226.087"
	 xml:space="preserve">
<g>
	<g>
		<polygon fill-rule="evenodd" clip-rule="evenodd" fill="#063D85" points="20.41,189.939 27.808,189.939 27.808,187.74 
			22.93,187.74 22.93,175.98 20.41,175.98 		"/>
		<path fill-rule="evenodd" clip-rule="evenodd" fill="#063D85" d="M27.726,189.939h2.61l1.098-3.199h5.093l1.08,3.199h2.79
			l-4.932-13.959h-2.844L27.726,189.939z M35.825,184.54h-3.672l1.818-5.76h0.036L35.825,184.54z"/>
		<polygon fill-rule="evenodd" clip-rule="evenodd" fill="#063D85" points="42.472,189.939 44.992,189.939 44.992,178.18 
			48.592,178.18 48.592,175.98 38.873,175.98 38.873,178.18 42.472,178.18 		"/>
		<polygon fill-rule="evenodd" clip-rule="evenodd" fill="#063D85" points="52.845,189.939 55.94,189.939 60.17,175.98 
			57.668,175.98 54.482,186.939 54.446,186.939 51.225,175.98 48.525,175.98 		"/>
		<rect x="61.204" y="175.98" fill-rule="evenodd" clip-rule="evenodd" fill="#063D85" width="2.52" height="13.959"/>
		<path fill-rule="evenodd" clip-rule="evenodd" fill="#063D85" d="M64.97,189.92c0.702,0.199,1.242,0.26,1.926,0.26
			c2.574,0,3.438-2.08,3.438-3.56v-10.64h-2.52v9.299c0,1,0,2.461-1.638,2.461c-0.504,0-0.864-0.101-1.206-0.24V189.92z"/>
		<path fill-rule="evenodd" clip-rule="evenodd" fill="#063D85" d="M71.346,189.939h2.61l1.098-3.199h5.094l1.08,3.199h2.79
			l-4.932-13.959h-2.844L71.346,189.939z M79.445,184.54h-3.672l1.818-5.76h0.036L79.445,184.54z"/>
		<path fill-rule="evenodd" clip-rule="evenodd" fill="#063D85" d="M92.23,176.24c-0.918-0.34-1.926-0.5-3.006-0.5
			c-2.214,0-4.392,1.141-4.392,4.26c0,4.62,5.508,3.52,5.508,6.18c0,1.26-1.278,1.801-2.232,1.801c-0.99,0-1.98-0.341-2.844-0.86
			l-0.234,2.52c1.242,0.341,1.854,0.54,3.222,0.54c2.538,0,4.716-1.16,4.716-4.22c0-4.68-5.508-3.659-5.508-6.08
			c0-1.52,1.116-1.939,1.98-1.939c0.882,0,1.764,0.22,2.556,0.6L92.23,176.24z"/>
		<path fill-rule="evenodd" clip-rule="evenodd" fill="#063D85" d="M98.413,189.92c0.702,0.199,1.242,0.26,1.926,0.26
			c2.574,0,3.438-2.08,3.438-3.56v-10.64h-2.52v9.299c0,1,0,2.461-1.638,2.461c-0.504,0-0.864-0.101-1.206-0.24V189.92z"/>
		<path fill-rule="evenodd" clip-rule="evenodd" fill="#063D85" d="M106.535,184.9c0,3.739,1.908,5.279,5.129,5.279
			s5.13-1.54,5.13-5.279v-8.92h-2.52v8.06c0,2.38-0.684,3.94-2.61,3.94s-2.61-1.561-2.61-3.94v-8.06h-2.52V184.9z M108.514,174.381
			h6.318v-0.961h-6.318V174.381z"/>
		<path fill-rule="evenodd" clip-rule="evenodd" fill="#063D85" d="M119.373,189.939h2.52v-5.799h0.81
			c1.062,0,1.386,0.399,1.746,1.439l1.512,4.359h2.808l-2.016-5.459c-0.252-0.62-0.648-1.381-1.332-1.44V183
			c1.602-0.24,2.592-1.6,2.592-3.24c0-3.879-3.222-3.779-5.922-3.779h-2.718V189.939z M121.893,178.18h0.828
			c1.26,0,2.664,0.141,2.664,1.82c0,1.74-1.422,1.939-2.664,1.939h-0.828V178.18z"/>
		<path fill-rule="evenodd" clip-rule="evenodd" fill="#063D85" d="M129.079,189.939h2.61l1.098-3.199h5.094l1.08,3.199h2.79
			l-4.932-13.959h-2.844L129.079,189.939z M137.179,184.54h-3.672l1.818-5.76h0.036L137.179,184.54z"/>
		<path fill-rule="evenodd" clip-rule="evenodd" fill="#063D85" d="M149.963,176.24c-0.918-0.34-1.926-0.5-3.005-0.5
			c-2.214,0-4.392,1.141-4.392,4.26c0,4.62,5.508,3.52,5.508,6.18c0,1.26-1.278,1.801-2.232,1.801c-0.99,0-1.98-0.341-2.844-0.86
			l-0.234,2.52c1.242,0.341,1.854,0.54,3.222,0.54c2.538,0,4.716-1.16,4.716-4.22c0-4.68-5.508-3.659-5.508-6.08
			c0-1.52,1.116-1.939,1.98-1.939c0.882,0,1.764,0.22,2.556,0.6L149.963,176.24z"/>
		<path fill-rule="evenodd" clip-rule="evenodd" fill="#063D85" d="M155.912,189.939h2.61l1.098-3.199h5.093l1.08,3.199h2.79
			l-4.931-13.959h-2.845L155.912,189.939z M164.012,184.54h-3.672l1.818-5.76h0.035L164.012,184.54z"/>
		<path fill-rule="evenodd" clip-rule="evenodd" fill="#063D85" d="M169.813,189.939h3.438c3.853,0,7.254-1.439,7.254-6.979
			s-3.401-6.979-7.254-6.979h-3.438V189.939z M172.332,178.18h1.404c2.105,0,4.14,1.74,4.14,4.78s-2.034,4.78-4.14,4.78h-1.404
			V178.18z"/>
		<polygon fill-rule="evenodd" clip-rule="evenodd" fill="#063D85" points="182.418,189.939 184.83,189.939 184.83,178.461 
			184.865,178.42 188.249,189.939 190.661,189.939 194.045,178.42 194.081,178.42 194.081,189.939 196.492,189.939 196.492,175.98 
			192.461,175.98 189.473,186.561 189.438,186.561 186.449,175.98 182.418,175.98 		"/>
		<rect x="199.162" y="175.98" fill-rule="evenodd" clip-rule="evenodd" fill="#063D85" width="2.521" height="13.959"/>
		<polygon fill-rule="evenodd" clip-rule="evenodd" fill="#063D85" points="204.225,189.939 206.637,189.939 206.637,179.5 
			206.672,179.5 211.479,189.939 214.556,189.939 214.556,175.98 212.144,175.98 212.144,186.42 212.107,186.42 207.32,175.98 
			204.225,175.98 		"/>
		<rect x="217.099" y="175.98" fill-rule="evenodd" clip-rule="evenodd" fill="#063D85" width="2.521" height="13.959"/>
		<path fill-rule="evenodd" clip-rule="evenodd" fill="#063D85" d="M229.09,176.24c-0.918-0.34-1.926-0.5-3.006-0.5
			c-2.213,0-4.392,1.141-4.392,4.26c0,4.62,5.508,3.52,5.508,6.18c0,1.26-1.278,1.801-2.231,1.801c-0.99,0-1.98-0.341-2.844-0.86
			l-0.234,2.52c1.242,0.341,1.854,0.54,3.222,0.54c2.538,0,4.716-1.16,4.716-4.22c0-4.68-5.508-3.659-5.508-6.08
			c0-1.52,1.116-1.939,1.98-1.939c0.881,0,1.764,0.22,2.555,0.6L229.09,176.24z"/>
		<polygon fill-rule="evenodd" clip-rule="evenodd" fill="#063D85" points="233.289,189.939 235.809,189.939 235.809,178.18 
			239.408,178.18 239.408,175.98 229.689,175.98 229.689,178.18 233.289,178.18 		"/>
		<path fill-rule="evenodd" clip-rule="evenodd" fill="#063D85" d="M240.223,189.939h2.521v-5.799h0.81
			c1.063,0,1.387,0.399,1.746,1.439l1.512,4.359h2.809l-2.017-5.459c-0.252-0.62-0.647-1.381-1.331-1.44V183
			c1.602-0.24,2.592-1.6,2.592-3.24c0-3.879-3.223-3.779-5.922-3.779h-2.719V189.939z M242.743,178.18h0.828
			c1.26,0,2.663,0.141,2.663,1.82c0,1.74-1.422,1.939-2.663,1.939h-0.828V178.18z"/>
		<path fill-rule="evenodd" clip-rule="evenodd" fill="#063D85" d="M249.75,189.939h2.609l1.098-3.199h5.094l1.08,3.199h2.79
			l-4.932-13.959h-2.844L249.75,189.939z M257.85,184.54h-3.672l1.817-5.76h0.036L257.85,184.54z M252.647,175.021h6.624v-1.22
			h-6.714L252.647,175.021z"/>
		<path fill-rule="evenodd" clip-rule="evenodd" fill="#063D85" d="M271.966,187.4c-0.594,0.34-1.764,0.58-2.754,0.58
			c-2.682,0-4.266-2.141-4.266-4.98c0-2.859,1.62-5.06,4.212-5.06c0.9,0,1.764,0.14,2.718,0.739l0.181-2.359
			c-0.919-0.4-2.017-0.58-2.845-0.58c-4.266,0-6.894,2.68-6.894,7.46c0,4.72,2.826,6.979,6.894,6.979
			c0.954,0,1.944-0.199,2.862-0.439L271.966,187.4z"/>
		<rect x="273.681" y="175.98" fill-rule="evenodd" clip-rule="evenodd" fill="#063D85" width="2.521" height="13.959"/>
		<path fill-rule="evenodd" clip-rule="evenodd" fill="#063D85" d="M277.446,189.92c0.702,0.199,1.242,0.26,1.927,0.26
			c2.573,0,3.438-2.08,3.438-3.56v-10.64h-2.52v9.299c0,1,0,2.461-1.639,2.461c-0.504,0-0.863-0.101-1.206-0.24V189.92z"/>
		<path fill-rule="evenodd" clip-rule="evenodd" fill="#063D85" d="M283.822,189.939h2.609l1.099-3.199h5.094l1.079,3.199h2.791
			l-4.932-13.959h-2.844L283.822,189.939z M291.922,184.54h-3.672l1.818-5.76h0.035L291.922,184.54z"/>
	</g>
	<g>
		<polygon fill-rule="evenodd" clip-rule="evenodd" fill="#063D85" points="20.406,208.083 22.4,208.083 22.4,198.898 
			22.43,198.867 25.228,208.083 27.222,208.083 30.02,198.867 30.049,198.867 30.049,208.083 32.043,208.083 32.043,196.914 
			28.71,196.914 26.239,205.379 26.21,205.379 23.739,196.914 20.406,196.914 		"/>
		<path fill-rule="evenodd" clip-rule="evenodd" fill="#063D85" d="M33.063,208.083h2.158l0.908-2.56h4.212l0.893,2.56h2.307
			l-4.078-11.169h-2.351L33.063,208.083z M39.76,203.763h-3.036l1.503-4.608h0.029L39.76,203.763z"/>
		<path fill-rule="evenodd" clip-rule="evenodd" fill="#063D85" d="M44.677,208.083h2.083v-4.64h0.669
			c0.878,0,1.146,0.319,1.444,1.151l1.25,3.488h2.322l-1.667-4.368c-0.208-0.496-0.536-1.104-1.101-1.152v-0.031
			c1.324-0.192,2.143-1.281,2.143-2.593c0-3.104-2.664-3.024-4.896-3.024h-2.247V208.083z M46.761,198.675h0.685
			c1.042,0,2.203,0.112,2.203,1.456c0,1.392-1.176,1.552-2.203,1.552h-0.685V198.675z"/>
		<rect x="53.895" y="196.914" fill-rule="evenodd" clip-rule="evenodd" fill="#063D85" width="2.083" height="11.169"/>
		<polygon fill-rule="evenodd" clip-rule="evenodd" fill="#063D85" points="60.076,208.083 62.16,208.083 62.16,198.675 
			65.136,198.675 65.136,196.914 57.1,196.914 57.1,198.675 60.076,198.675 		"/>
		<rect x="66.258" y="196.914" fill-rule="evenodd" clip-rule="evenodd" fill="#063D85" width="2.083" height="11.169"/>
		<polygon fill-rule="evenodd" clip-rule="evenodd" fill="#063D85" points="70.549,208.083 72.543,208.083 72.543,198.898 
			72.573,198.867 75.371,208.083 77.365,208.083 80.163,198.867 80.193,198.867 80.193,208.083 82.187,208.083 82.187,196.914 
			78.854,196.914 76.383,205.379 76.353,205.379 73.883,196.914 70.549,196.914 		"/>
		<polygon fill-rule="evenodd" clip-rule="evenodd" fill="#063D85" points="84.575,208.083 90.736,208.083 90.736,206.322 
			86.659,206.322 86.659,203.187 90.364,203.187 90.364,201.427 86.659,201.427 86.659,198.675 90.707,198.675 90.707,196.914 
			84.575,196.914 		"/>
		<path fill-rule="evenodd" clip-rule="evenodd" fill="#063D85" d="M95.866,208.083h2.158l0.908-2.56h4.211l0.893,2.56h2.307
			l-4.078-11.169h-2.352L95.866,208.083z M102.563,203.763h-3.036l1.503-4.608h0.03L102.563,203.763z"/>
		<path fill-rule="evenodd" clip-rule="evenodd" fill="#063D85" d="M107.362,208.083h2.843c3.185,0,5.998-1.152,5.998-5.585
			c0-4.432-2.813-5.584-5.998-5.584h-2.843V208.083z M109.445,198.675h1.161c1.741,0,3.423,1.392,3.423,3.823
			c0,2.433-1.682,3.824-3.423,3.824h-1.161V198.675z"/>
		<polygon fill-rule="evenodd" clip-rule="evenodd" fill="#063D85" points="117.935,208.083 119.929,208.083 119.929,198.898 
			119.958,198.867 122.756,208.083 124.751,208.083 127.549,198.867 127.579,198.867 127.579,208.083 129.573,208.083 
			129.573,196.914 126.239,196.914 123.769,205.379 123.739,205.379 121.269,196.914 117.935,196.914 		"/>
		<rect x="131.931" y="196.914" fill-rule="evenodd" clip-rule="evenodd" fill="#063D85" width="2.084" height="11.169"/>
		<polygon fill-rule="evenodd" clip-rule="evenodd" fill="#063D85" points="136.267,208.083 138.261,208.083 138.261,199.73 
			138.291,199.73 142.264,208.083 144.809,208.083 144.809,196.914 142.815,196.914 142.815,205.267 142.785,205.267 
			138.826,196.914 136.267,196.914 		"/>
		<rect x="147.063" y="196.914" fill-rule="evenodd" clip-rule="evenodd" fill="#063D85" width="2.083" height="11.169"/>
		<path fill-rule="evenodd" clip-rule="evenodd" fill="#063D85" d="M157.128,197.123c-0.759-0.272-1.593-0.4-2.485-0.4
			c-1.831,0-3.631,0.912-3.631,3.408c0,3.695,4.554,2.816,4.554,4.943c0,1.009-1.057,1.44-1.845,1.44
			c-0.818,0-1.637-0.272-2.352-0.688l-0.193,2.017c1.027,0.272,1.533,0.433,2.664,0.433c2.098,0,3.899-0.929,3.899-3.377
			c0-3.744-4.554-2.928-4.554-4.863c0-1.217,0.922-1.553,1.637-1.553c0.729,0,1.458,0.176,2.114,0.48L157.128,197.123z"/>
		<polygon fill-rule="evenodd" clip-rule="evenodd" fill="#063D85" points="161.196,208.083 163.279,208.083 163.279,198.675 
			166.256,198.675 166.256,196.914 158.22,196.914 158.22,198.675 161.196,198.675 		"/>
		<path fill-rule="evenodd" clip-rule="evenodd" fill="#063D85" d="M167.378,208.083h2.084v-4.64h0.669
			c0.879,0,1.146,0.319,1.444,1.151l1.25,3.488h2.321l-1.666-4.368c-0.209-0.496-0.536-1.104-1.102-1.152v-0.031
			c1.324-0.192,2.143-1.281,2.143-2.593c0-3.104-2.664-3.024-4.896-3.024h-2.247V208.083z M169.462,198.675h0.685
			c1.041,0,2.203,0.112,2.203,1.456c0,1.392-1.176,1.552-2.203,1.552h-0.685V198.675z"/>
		<path fill-rule="evenodd" clip-rule="evenodd" fill="#063D85" d="M175.555,208.083h2.158l0.907-2.56h4.212l0.893,2.56h2.307
			l-4.078-11.169h-2.351L175.555,208.083z M182.252,203.763h-3.037l1.504-4.608h0.029L182.252,203.763z"/>
		<polygon fill-rule="evenodd" clip-rule="evenodd" fill="#063D85" points="188.047,208.083 190.131,208.083 190.131,198.675 
			193.107,198.675 193.107,196.914 185.07,196.914 185.07,198.675 188.047,198.675 		"/>
		<rect x="194.229" y="196.914" fill-rule="evenodd" clip-rule="evenodd" fill="#063D85" width="2.084" height="11.169"/>
		<path fill-rule="evenodd" clip-rule="evenodd" fill="#063D85" d="M198.014,202.467c0,3.424,1.756,5.809,5.09,5.809
			c3.289,0,5.09-2.433,5.09-5.809s-1.83-5.744-5.09-5.744C199.8,196.723,198.014,199.043,198.014,202.467z M200.187,202.467
			c0-1.969,0.849-3.984,2.917-3.984s2.917,2.016,2.917,3.984c0,2.016-0.788,4.048-2.917,4.048
			C200.976,206.515,200.187,204.482,200.187,202.467z"/>
		<polygon fill-rule="evenodd" clip-rule="evenodd" fill="#063D85" points="209.971,208.083 211.965,208.083 211.965,199.73 
			211.994,199.73 215.969,208.083 218.514,208.083 218.514,196.914 216.52,196.914 216.52,205.267 216.489,205.267 212.531,196.914 
			209.971,196.914 		"/>
		<path fill-rule="evenodd" clip-rule="evenodd" fill="#063D85" d="M224.402,202.467c0,3.424,1.756,5.809,5.09,5.809
			c3.289,0,5.09-2.433,5.09-5.809s-1.83-5.744-5.09-5.744C226.188,196.723,224.402,199.043,224.402,202.467z M226.576,202.467
			c0-1.969,0.848-3.984,2.916-3.984s2.918,2.016,2.918,3.984c0,2.016-0.789,4.048-2.918,4.048
			C227.364,206.515,226.576,204.482,226.576,202.467z"/>
		<polygon fill-rule="evenodd" clip-rule="evenodd" fill="#063D85" points="236.464,208.083 238.547,208.083 238.547,203.187 
			242.06,203.187 242.06,201.427 238.547,201.427 238.547,198.675 242.238,198.675 242.238,196.914 236.464,196.914 		"/>
		<polygon fill-rule="evenodd" clip-rule="evenodd" fill="#063D85" points="247.996,208.083 254.112,208.083 254.112,206.322 
			250.079,206.322 250.079,196.914 247.996,196.914 		"/>
		<path fill-rule="evenodd" clip-rule="evenodd" fill="#063D85" d="M254.344,208.083h2.158l0.907-2.56h4.212l0.893,2.56h2.307
			l-4.077-11.169h-2.352L254.344,208.083z M261.041,203.763h-3.036l1.503-4.608h0.029L261.041,203.763z"/>
		<polygon fill-rule="evenodd" clip-rule="evenodd" fill="#063D85" points="267.134,208.083 269.217,208.083 269.217,198.675 
			272.193,198.675 272.193,196.914 264.157,196.914 264.157,198.675 267.134,198.675 		"/>
		<polygon fill-rule="evenodd" clip-rule="evenodd" fill="#063D85" points="276.01,208.083 278.568,208.083 282.066,196.914 
			279.998,196.914 277.363,205.683 277.334,205.683 274.67,196.914 272.438,196.914 		"/>
		<rect x="283.221" y="196.914" fill-rule="evenodd" clip-rule="evenodd" fill="#063D85" width="2.084" height="11.169"/>
		<path fill-rule="evenodd" clip-rule="evenodd" fill="#063D85" d="M286.291,208.083h2.158l0.908-2.56h4.211l0.894,2.56h2.307
			l-4.077-11.169h-2.352L286.291,208.083z M292.988,203.763h-3.035l1.502-4.608h0.03L292.988,203.763z"/>
	</g>
</g>
<g>
	<path fill="#BEBEBE" d="M78.58,27.85h158.506v2.111H78.58V27.85z M78.58,45.938h61.322l-1.83,1.75l6.254,0.863l0.112,0.235
		L78.58,48.785V45.938z M184.567,45.938h52.519v2.849l-57.055,0l0.111-0.235l6.255-0.863L184.567,45.938z M78.58,54.629h59.008
		l-1.727,3.217H78.58V54.629z M188.325,54.629h48.761v3.217h-50.6L188.325,54.629z M78.579,63.656h54.16l-2.188,3.954H78.579V63.656
		z M183.363,63.656h53.724v3.954h-55.913L183.363,63.656z M78.579,72.515h49.259l-2.392,4.324H78.579V72.515z M178.459,72.515
		h58.628v4.324h-61.021L178.459,72.515z M78.579,81.375h44.357l-2.8,5.062H78.579V81.375z M173.556,81.375h63.531v5.062h-66.333
		L173.556,81.375z M78.579,90.62h39.242l-1.885,3.407c-0.338,0.515-0.648,1.061-0.926,1.635H78.579V90.62z M168.438,90.62H237.3
		c-0.177,0.565-0.158,1.212-0.023,5.042h-71.671c0.124-0.214,0.253-0.422,0.387-0.624L168.438,90.62z M78.579,99.462h35.177
		c-0.206,1.054-0.315,2.164-0.315,3.32c0,0.844,0.059,1.674,0.173,2.479H78.579V99.462z M164.14,99.462h73.317l0.001,5.799h-73.477
		c-0.13-0.799-0.199-1.633-0.199-2.49C163.782,101.606,163.908,100.499,164.14,99.462z M164.84,108.322h72.618v6.168h-69.133
		l-2.309-4.031C165.566,109.835,165.17,109.115,164.84,108.322z M78.579,117.181h40.635l3.948,6.907H78.579V117.181z
		 M169.866,117.181h67.592v6.907h-63.636L169.866,117.181z M78.579,126.04h45.699l4.159,7.276H78.579V126.04z M174.94,126.04h62.518
		v7.276h-58.351L174.94,126.04z M78.58,19.04h158.648v1.809H78.58V19.04z M117.675,114.49H78.579v-6.168h35.772
		c0.416,1.188,0.967,2.273,1.637,3.215L117.675,114.49z M78.58,36.709h62.723l0.593,2.479H78.58V36.709z M183.166,36.709h53.92
		v2.479h-54.514L183.166,36.709z M156.906,147.609l-1.784,0.009c-24.679,0.173-54.097-3.856-63.582-5.119
		c3.813,5.386,7.186,11.249,10.16,17.159l110.379-0.012c2.968-5.898,6.864-11.762,10.657-17.182
		c-9.465,1.297-39.405,5.319-64.085,5.135l-1.286-0.014L156.906,147.609z M237.458,162.107H78.579v-27.113h53.469l2.991,5.248
		c4.345-0.182,9.952-0.316,16.307-0.383c3.243-0.166,7.346-0.179,12.309-0.037c6.189,0.024,11.895,0.113,16.712,0.252l-2.897-5.08
		h59.989V162.107z"/>
	<path fill="#063D85" d="M100.087,162.251c-4.02-8.218-8.884-15.977-14.351-23.253c0,0,39.68,6.226,69.386,6.026h3.734
		c29.705,0.245,69.701-6.025,69.701-6.025s-3.85,5.132-6.363,8.891c-3.035,4.539-6.105,9.45-8.508,14.361H100.087z M222.738,142.486
		c-9.464,1.297-39.406,5.319-64.087,5.135l-1.286-0.014l-0.46,0.008l1.746,0.006l-3.53,0.02c-24.681,0.173-54.1-3.857-63.563-5.154
		c3.814,5.387,7.187,11.252,10.155,17.15H212.06C215.028,153.737,218.924,147.873,222.738,142.486z M154.315,139.832h6.354
		l-16.079-28.25c-1.662-2.347-2.596-5.539-2.596-8.958c0-3.47,0.956-6.532,2.541-8.952l20.074-36.427h-6.394l-20.809,37.767
		c-1.307,1.979-2.165,4.598-2.165,7.601c0,3,0.869,5.717,2.185,7.55L154.315,139.832z M146.793,110.174l16.861,29.627
		c6.189,0.023,11.895,0.113,16.674,0.25l-16.25-28.48c-1.662-2.346-2.596-5.539-2.596-8.958c0-3.47,0.955-6.532,2.541-8.952
		l20.066-36.416h-13.198h-3.298l-20.82,37.778c-1.307,1.979-2.165,4.598-2.165,7.601
		C144.609,105.623,145.478,108.34,146.793,110.174z M117.925,110.174l17.113,30.047c4.346-0.182,9.952-0.316,16.27-0.383
		l-16.085-28.268c-1.661-2.347-2.596-5.539-2.596-8.958c0-3.47,0.956-6.532,2.541-8.952l20.055-36.416h-1.852h-14.645
		l-20.821,37.778c-1.307,1.979-2.165,4.598-2.165,7.601C115.741,105.623,116.61,108.34,117.925,110.174z M150.093,40.653
		l-3.003,1.61l-2.996-1.625l0.603,3.349l-2.458,2.351l3.364,0.464l1.468,3.074l1.483-3.068l3.378-0.446l-2.459-2.358L150.093,40.653
		z M182.229,46.339l-2.458-2.351l0.604-3.349l-3.008,1.632l-2.997-1.648l0.626,3.382l-2.46,2.358l3.378,0.446l1.483,3.068
		l1.468-3.074L182.229,46.339z M167.123,38.246l-3.383-0.455l-1.479-3.077l-1.477,3.072l-3.374,0.466l2.458,2.351l-0.612,3.356
		l3.014-1.625l2.999,1.65l-0.618-3.382L167.123,38.246z M171.654,36.709l-4.771,4.618l1.18,6.467l4.702-4.509L171.654,36.709z
		 M157.641,41.327l-4.478-4.618l-1.458,6.576l4.756,4.562l-6.533,0.862l-2.868,5.933l12.587,0.007h6.394h22.476l-22.255,40.363
		c-1.308,1.979-2.165,4.598-2.165,7.601c0,3,0.869,5.716,2.185,7.55l18.698,32.76c-7.34-0.25-14.68-0.382-22.023-0.404l-7.162-0.09
		c-7.357,0.149-14.766,0.248-22.17,0.581l-17.901-31.427c-1.662-2.347-2.596-5.539-2.596-8.958c0-3.469,0.956-6.532,2.541-8.952
		l21.515-39.042l9.877,0.013l-2.839-5.947l-6.493-0.896l4.742-4.536l-1.167-6.486l5.792,3.143l6.067-3.21l6.244-0.814l2.855-5.945
		l2.855,5.945l6.537,0.814l5.719,3.21l5.793-3.143l-1.168,6.486l4.742,4.536l-6.492,0.896l-2.839,5.947l-2.868-5.933l-6.533-0.862
		l-5.746-3.163l-5.805,3.131L157.641,41.327z"/>
</g>
</svg>
